# xmcd CD database file
#
# Track frame offsets:
#	150
#	32530
#	49084
#	77479
#	107602
#	129338
#
# Disc length: 2209 seconds
#
# Revision: 0
# Processed by: cddbd v1.5.1PL0 Copyright (c) Steve Scherf et al.
# Submitted via: CDex 1.51
#
DISCID=3c089f06
DTITLE=Harold Land - Take Aim
DYEAR=1960
DGENRE=Jazz
TTITLE0=As You like It
TTITLE1=Take Aim
TTITLE2=Land of Peace
TTITLE3=Reflections
TTITLE4=Blue Nellie
TTITLE5=You're my thrill
EXTD=YEAR: 1960
EXTT0=
EXTT1=
EXTT2=
EXTT3=
EXTT4=
EXTT5=
PLAYORDER=
